<svg width="242" height="75" viewBox="0 0 242 75" fill="none" xmlns="http://www.w3.org/2000/svg">
<path d="M93.5005 34.354C86.938 32.729 82.1255 31.9165 82.1255 25.979C82.1255 22.2915 85.5005 19.854 91.813 19.854C98.8755 19.854 102.25 22.979 103.063 28.979H108.688C107.938 19.729 101.313 14.854 91.813 14.854C81.938 14.854 76.5005 19.5415 76.5005 26.604C76.5005 35.2915 84.5005 37.604 91.188 39.1665C101.188 41.479 104.5 42.604 104.5 48.729C104.5 52.729 101.75 56.2915 94.0005 56.2915C84.6255 56.2915 80.8755 51.5415 80.2505 45.4165H74.6255C75.2505 55.6665 83.438 61.2915 94.0005 61.2915C105.313 61.2915 110.125 55.229 110.125 48.729C110.125 38.5415 103.563 36.854 93.5005 34.354Z" fill="#202020"/>
<path d="M145.105 59.104L140.542 53.604C144.605 49.604 147.355 44.2915 148.48 38.4165C151.105 24.7915 144.167 14.854 130.855 14.854C117.917 14.854 107.417 24.4165 104.855 37.6665C102.23 51.2915 109.167 61.2915 122.417 61.2915C127.48 61.2915 132.292 59.854 136.355 57.1665L140.917 62.6665L145.105 59.104ZM122.855 56.2915C111.73 56.2915 108.542 47.854 110.355 38.4165C112.23 28.604 119.105 19.854 130.48 19.854C141.605 19.854 144.855 28.229 142.98 37.6665C142.105 42.1665 140.23 46.354 137.48 49.604L132.73 43.9165L128.605 47.479L133.292 53.229C130.417 55.104 126.98 56.2915 122.855 56.2915Z" fill="#202020"/>
<path d="M177.605 45.5415V15.729H171.98V45.5415C171.98 52.7915 168.23 56.2915 160.48 56.2915C152.73 56.2915 148.98 52.7915 148.98 45.5415V15.729H143.355V45.5415C143.355 54.6665 148.542 61.2915 160.48 61.2915C172.417 61.2915 177.605 54.6665 177.605 45.5415Z" fill="#202020"/>
<path d="M197.063 49.229L201 60.4165H206.813L190.375 15.729H184.125L167.625 60.4165H173.438L177.375 49.229H197.063ZM179.25 44.229L187.188 20.9165H187.313L195.25 44.229H179.25Z" fill="#202020"/>
<path d="M202.438 60.4165H218.625C230.938 60.4165 238.5 52.479 238.5 38.104C238.5 23.729 230.938 15.729 218.625 15.729H202.438V60.4165ZM208.063 20.729H218.625C230 20.729 232.875 29.354 232.875 38.104C232.875 46.854 230 55.4165 218.625 55.4165H208.063V20.729Z" fill="#202020"/>
<path d="M27.6675 60.4165H33.2925L41.0425 20.729H55.9175L56.855 15.729H21.48L20.5425 20.729H35.4175L27.6675 60.4165Z" fill="#202020"/>
<path d="M10.084 15.729L1.39648 60.4165H7.02148L15.709 15.729H10.084Z" fill="#202020"/>
</svg>
